<svg xmlns="http://www.w3.org/2000/svg" width="168.358" height="168.147" viewBox="0 0 168.358 168.147"><path d="M80-753.732V-871.161a8.753,8.753,0,0,1,2.736-5.893Q85.472-880,88.418-880H197.64a8.116,8.116,0,0,1,5.893,2.841,8.589,8.589,0,0,1,2.736,6v74.919a8.753,8.753,0,0,1-2.736,5.893,8,8,0,0,1-5.893,2.946H113.672Zm113.641-46.3v-67.343H92.627v67.343Zm-101.015,0v0Z" transform="translate(-80 880)" fill="#ff927b"/><path d="M248.628-618.985q-2.946,0-5.787-2.946T240-627.824v-20.624H345.223V-720h21.045q2.946,0,5.682,2.946a8.944,8.944,0,0,1,2.736,6.1v125.426l-33.461-33.461Z" transform="translate(-206.328 753.672)" fill="#f34b6f"/></svg>