<svg xmlns="http://www.w3.org/2000/svg" width="168.358" height="168.357" viewBox="0 0 168.358 168.357"><path d="M202.059-711.643v-18.239A43.739,43.739,0,0,1,182.8-742.157a37.08,37.08,0,0,1-9.575-19.992h12.837A26.751,26.751,0,0,0,195.325-747a26.269,26.269,0,0,0,17.257,5.893h25.254a10.148,10.148,0,0,1,7.453,3.069,10.148,10.148,0,0,1,3.069,7.453v18.94ZM225.2-752.68a15.177,15.177,0,0,1-11.144-4.639,15.223,15.223,0,0,1-4.63-11.154,15.177,15.177,0,0,1,4.639-11.144,15.223,15.223,0,0,1,11.154-4.63,15.177,15.177,0,0,1,11.144,4.639,15.223,15.223,0,0,1,4.63,11.154,15.177,15.177,0,0,1-4.639,11.144A15.223,15.223,0,0,1,225.2-752.68Zm-79.961-30.515q0-26.516,18.309-44.825t44.825-18.309V-833.7q-21.255,0-35.881,14.626t-14.626,35.881Zm25.254,0a36.478,36.478,0,0,1,11.08-26.832,36.561,36.561,0,0,1,26.8-11.048v12.627a24.354,24.354,0,0,0-17.888,7.366,24.354,24.354,0,0,0-7.366,17.888ZM80-807.4v-18.94a10.007,10.007,0,0,1,3.157-7.453,10.236,10.236,0,0,1,7.366-3.069h25.254a26.269,26.269,0,0,0,17.257-5.893,26.751,26.751,0,0,0,9.26-15.152H155.13a37.08,37.08,0,0,1-9.575,19.992A43.739,43.739,0,0,1,126.3-825.635V-807.4Zm23.14-41.037A15.177,15.177,0,0,1,92-853.072a15.223,15.223,0,0,1-4.63-11.154A15.177,15.177,0,0,1,92-875.37,15.223,15.223,0,0,1,103.158-880a15.177,15.177,0,0,1,11.144,4.639,15.223,15.223,0,0,1,4.63,11.154,15.177,15.177,0,0,1-4.639,11.144A15.223,15.223,0,0,1,103.14-848.433Z" transform="translate(-80 880)" fill="#ff927b"/><path d="M390-656.866q0-26.516,18.309-44.825T453.134-720v12.627q-21.255,0-35.881,14.626t-14.626,35.881Zm25.254,0a36.478,36.478,0,0,1,11.08-26.832,36.561,36.561,0,0,1,26.8-11.048v12.627a24.354,24.354,0,0,0-17.888,7.366,24.354,24.354,0,0,0-7.366,17.888Z" transform="translate(-324.761 753.672)" fill="#f34b6f"/></svg>