<svg xmlns="http://www.w3.org/2000/svg" width="609" height="136.4" viewBox="0 0 609 136.4"><g transform="translate(171 19)"><text transform="translate(0 80)" fill="#fff" font-size="77" font-family="Plus Jakarta Sans" font-weight="600"><tspan x="0" y="0">SUGAR LIST</tspan></text></g><path d="M103.3,15.7H88.608a20.348,20.348,0,0,0-38.466,0H35.452A20.374,20.374,0,0,0,15.1,36.1v14.93a20.417,20.417,0,0,0,0,38.121v14.93a20.374,20.374,0,0,0,20.354,20.394H50.066a20.349,20.349,0,0,0,38.618,0H103.3a20.374,20.374,0,0,0,20.354-20.394V89.319a20.416,20.416,0,0,0,0-38.46V36.1A20.374,20.374,0,0,0,103.3,15.7ZM28.668,89.482v14.6a6.791,6.791,0,0,0,6.785,6.8H50.3a20.348,20.348,0,0,1,38.151,0H103.3a6.792,6.792,0,0,0,6.785-6.8V89.327a20.416,20.416,0,0,1,0-38.476V36.1a6.792,6.792,0,0,0-6.785-6.8H88.532a20.348,20.348,0,0,1-38.314,0H35.452a6.791,6.791,0,0,0-6.785,6.8v14.6a20.415,20.415,0,0,1,0,38.788Z" transform="translate(-2 -2)" fill="#e46c73" fill-rule="evenodd"/></svg>