<svg xmlns="http://www.w3.org/2000/svg" width="438" height="440.4" viewBox="0 0 438 440.4"><text transform="translate(0 423.4)" fill="#fff" font-size="77" font-family="Plus Jakarta Sans" font-weight="600"><tspan x="0" y="0">SUGAR LIST</tspan></text><g transform="translate(68)"><path d="M227.8,32.487H195.059a45.389,45.389,0,0,0-85.746,0H76.569A45.371,45.371,0,0,0,31.2,77.858v33.214a45.39,45.39,0,0,0,0,84.807v33.214a45.371,45.371,0,0,0,45.371,45.371h32.576a45.389,45.389,0,0,0,86.083,0H227.8a45.372,45.372,0,0,0,45.371-45.371V196.255a45.389,45.389,0,0,0,0-85.56V77.858A45.371,45.371,0,0,0,227.8,32.487ZM61.445,196.62v32.473a15.123,15.123,0,0,0,15.124,15.124h33.1a45.389,45.389,0,0,1,85.044,0h33.1a15.124,15.124,0,0,0,15.124-15.124v-32.82a45.39,45.39,0,0,1,0-85.6V77.858A15.124,15.124,0,0,0,227.8,62.734H194.89a45.389,45.389,0,0,1-85.407,0H76.569A15.124,15.124,0,0,0,61.445,77.858V110.33a45.388,45.388,0,0,1,0,86.29Z" transform="translate(-2 -2)" fill="#e46c73" fill-rule="evenodd"/></g></svg>