<svg xmlns="http://www.w3.org/2000/svg" width="136.271" height="134.686" viewBox="0 0 136.271 134.686"><path d="M173.889-665.314a13.435,13.435,0,0,1-9.891-4,13.435,13.435,0,0,1-4-9.891,13.435,13.435,0,0,1,4-9.891,13.435,13.435,0,0,1,9.891-4,13.435,13.435,0,0,1,9.891,4,13.435,13.435,0,0,1,4,9.891,13.435,13.435,0,0,1-4,9.891A13.435,13.435,0,0,1,173.889-665.314Zm0-53.453a13.435,13.435,0,0,1-9.891-4,13.435,13.435,0,0,1-4-9.891,13.435,13.435,0,0,1,4-9.891,13.435,13.435,0,0,1,9.891-4,13.435,13.435,0,0,1,9.891,4,13.435,13.435,0,0,1,4,9.891,13.435,13.435,0,0,1-4,9.891A13.435,13.435,0,0,1,173.889-718.767Zm0-53.453a13.435,13.435,0,0,1-9.891-4,13.435,13.435,0,0,1-4-9.891A13.435,13.435,0,0,1,164-796a13.435,13.435,0,0,1,9.891-4,13.435,13.435,0,0,1,9.891,4,13.435,13.435,0,0,1,4,9.891,13.435,13.435,0,0,1-4,9.891A13.435,13.435,0,0,1,173.889-772.221Zm53.454,53.453a13.435,13.435,0,0,1-9.891-4,13.435,13.435,0,0,1-4-9.891,13.435,13.435,0,0,1,4-9.891,13.435,13.435,0,0,1,9.891-4,13.435,13.435,0,0,1,9.891,4,13.435,13.435,0,0,1,4,9.891Zm0-53.453a13.435,13.435,0,0,1-9.891-4,13.435,13.435,0,0,1-4-9.891,13.435,13.435,0,0,1,4-9.891,13.435,13.435,0,0,1,9.891-4,13.435,13.435,0,0,1,9.891,4,13.435,13.435,0,0,1,4,9.891,13.435,13.435,0,0,1-4,9.891A13.435,13.435,0,0,1,227.343-772.221Zm53.453,0a13.435,13.435,0,0,1-9.891-4,13.435,13.435,0,0,1-4-9.891,13.435,13.435,0,0,1,4-9.891,13.435,13.435,0,0,1,9.891-4,13.435,13.435,0,0,1,9.891,4,13.435,13.435,0,0,1,4,9.891,13.435,13.435,0,0,1-4,9.891A13.435,13.435,0,0,1,280.8-772.221Z" transform="translate(-160 800)" fill="#ff927b"/><path d="M440-450.184v-13.679L491.139-515l13.679,13.679-51.139,51.139Zm70.289-56.61L496.61-520.473l5.261-5.261a6.09,6.09,0,0,1,4.209-1.789,5.372,5.372,0,0,1,4.209,1.578l5.472,5.472a5.372,5.372,0,0,1,1.578,4.209,6.09,6.09,0,0,1-1.789,4.209Z" transform="translate(-381.075 584.87)" fill="#f34b6f"/></svg>